# Blender 3.1.0
# www.blender.org
o Plane.003
v -3.629177 1.647258 3.141344
v 3.188597 1.647258 3.527429
v -2.975903 1.647258 -4.698777
v 3.143219 1.647258 -4.504234
v -4.012330 1.647258 -2.874531
v -3.818404 1.647258 -0.607811
v -4.245018 1.647258 1.895006
v -2.284505 1.647258 4.152221
v -0.340291 1.647258 4.460191
v 1.638316 1.647258 4.153761
v 3.951345 1.566686 1.920359
v 3.604050 1.647258 -0.361461
v 3.954311 1.647258 -2.286617
v 1.982674 1.647258 -4.496150
v -0.080190 1.678554 -5.296950
v -1.580533 1.647258 -5.244974
v -2.289849 1.647258 1.901206
v -2.291691 1.647258 -0.361351
v -2.289947 1.647258 -2.624106
v -0.323917 1.647258 1.903576
v -0.324045 1.647258 -0.361295
v -0.323924 1.647258 -2.626366
v 1.642939 1.647258 1.902004
v 1.644534 1.647258 -0.361332
v 1.643024 1.647258 -2.624867
v -4.607621 1.358998 2.098872
v -3.937835 1.358998 3.456328
v 1.796193 1.358998 4.555418
v 3.486135 1.358998 3.877504
v 4.316852 1.358998 -2.452660
v 3.437395 1.358998 -4.869946
v -1.706642 1.358998 -5.672740
v -3.226818 1.358998 -5.080527
v -4.353255 1.358998 -3.092709
v -4.136943 1.358998 -0.625438
v -2.473016 1.358998 4.555418
v -0.356702 1.358998 4.887824
v 4.314899 1.278426 2.126314
v 3.930799 1.358998 -0.357675
v 2.170093 1.358998 -4.855077
v -0.073732 1.390293 -5.727304
v -4.613129 0.200584 2.096521
v -3.943343 0.200584 3.453978
v 1.790685 0.200584 4.553067
v 3.480627 0.200584 3.875153
v 4.311344 0.200584 -2.455011
v 3.431887 0.200584 -4.872297
v -1.712151 0.200584 -5.675090
v -3.232326 0.200584 -5.082878
v -4.358763 0.200584 -3.095059
v -4.142451 0.200584 -0.627789
v -2.478524 0.200584 4.553067
v -0.362210 0.200584 4.885473
v 4.309391 0.120012 2.123964
v 3.925290 0.200584 -0.360025
v 2.164585 0.200584 -4.857428
v -0.079240 0.231879 -5.729654
v -2.478524 0.200584 -2.816572
v -2.478524 0.200584 2.096521
v -2.478524 0.200584 -0.360025
v -0.343920 0.200584 -2.816572
v -0.343920 0.200584 2.096521
v -0.343920 0.200584 -0.360025
v 1.790685 0.200584 -2.816572
v 1.790685 0.200584 2.096521
v 1.790685 0.200584 -0.360025
vn -0.0000 2.1628 -0.0000
vn 0.8463 1.8643 -1.7057
vn 0.2716 1.9792 -1.5307
vn -0.9652 1.9131 -1.4257
vn -1.6369 1.8788 -0.3684
vn -0.0031 2.1627 0.0185
vn -0.2939 1.9341 -1.7010
vn 0.2259 1.9287 -1.7339
vn -1.1018 1.9306 1.2009
vn -1.6516 1.8814 0.2014
vn -1.4251 1.9590 -0.0784
vn -0.5190 1.9217 1.6744
vn 0.3375 1.9366 1.6810
vn 0.0016 1.9263 1.7617
vn 0.0444 2.1626 -0.0008
vn 1.0685 1.9188 1.2976
vn 1.3866 1.9701 0.1002
vn -3.0855 0.7004 -0.9114
vn -2.2587 -1.6024 -0.1242
vn -3.1922 0.6807 -0.1760
vn 3.1695 0.6970 -0.3883
vn 2.2162 -1.6282 -0.0054
vn 2.5564 -1.3990 -0.2775
vn -1.5874 -1.3827 -2.3538
vn -2.5189 -1.3801 -0.7055
vn 3.1510 0.6790 0.6201
vn 3.1816 0.7054 0.1030
vn -1.9365 0.7414 -2.8781
vn -0.4149 -1.4635 -2.8128
vn 1.6520 -1.3509 2.3541
vn 2.4625 -1.4518 0.4671
vn 1.7766 0.7197 -3.0285
vn 1.4772 -1.2992 -2.5897
vn -0.0064 0.7131 3.6581
vn 0.5687 -1.4831 2.7432
vn 0.7481 0.7238 3.5485
vn 2.0778 0.7561 2.7316
vn -1.1197 0.7305 3.4119
vn -0.0035 -1.4675 2.8463
vn -0.5858 0.7300 -3.5846
vn 0.3846 -1.4203 -2.8885
vn -3.1318 0.7105 0.6358
vn -1.8497 -1.4212 2.0001
vn -2.3025 0.7494 2.4881
vn -0.8834 -1.4294 2.7244
vn 0.4731 0.7014 -3.6248
vn 0.4507 0.7194 -3.6172
vn -2.5671 -1.3740 0.4759
vn 0.3381 -1.6153 -2.5472
vn 1.6459 1.8859 -0.0988
vn 1.7280 1.8524 0.2133
vn -0.0000 -2.1628 -0.0000
vn 0.0029 -2.1628 -0.0170
vn -0.0407 -2.1626 0.0006
vt 0.000000 0.000000
vt 1.000000 0.000000
vt 0.000000 1.000000
vt 1.000000 1.000000
vt 0.000000 0.750000
vt 0.000000 0.500000
vt 0.000000 0.250000
vt 0.250000 0.000000
vt 0.500000 0.000000
vt 0.750000 0.000000
vt 1.000000 0.250000
vt 1.000000 0.500000
vt 1.000000 0.750000
vt 0.750000 1.000000
vt 0.500000 1.000000
vt 0.250000 1.000000
vt 0.250000 0.250000
vt 0.250000 0.500000
vt 0.250000 0.750000
vt 0.500000 0.250000
vt 0.500000 0.500000
vt 0.500000 0.750000
vt 0.750000 0.250000
vt 0.750000 0.500000
vt 0.750000 0.750000
vt 0.000000 0.250000
vt 0.000000 0.000000
vt 0.750000 0.000000
vt 1.000000 0.000000
vt 1.000000 0.750000
vt 1.000000 1.000000
vt 0.250000 1.000000
vt 0.000000 1.000000
vt 0.000000 0.750000
vt 0.000000 0.500000
vt 0.250000 0.000000
vt 0.500000 0.000000
vt 1.000000 0.250000
vt 1.000000 0.500000
vt 0.750000 1.000000
vt 0.500000 1.000000
vt 0.000000 0.250000
vt 0.000000 0.000000
vt 0.750000 0.000000
vt 1.000000 0.000000
vt 1.000000 0.750000
vt 1.000000 1.000000
vt 0.250000 1.000000
vt 0.000000 1.000000
vt 0.000000 0.750000
vt 0.000000 0.500000
vt 0.250000 0.000000
vt 0.500000 0.000000
vt 1.000000 0.250000
vt 1.000000 0.500000
vt 0.750000 1.000000
vt 0.500000 1.000000
vt 0.250000 0.750000
vt 0.250000 0.250000
vt 0.250000 0.500000
vt 0.500000 0.750000
vt 0.500000 0.250000
vt 0.500000 0.500000
vt 0.750000 0.750000
vt 0.750000 0.250000
vt 0.750000 0.500000
s 1
f 25/25/1 4/4/2 14/14/3
f 19/19/1 3/3/4 5/5/5
f 22/22/6 16/16/7 19/19/1
f 22/22/6 14/14/3 15/15/8
f 1/1/9 17/17/1 7/7/10
f 17/17/1 6/6/11 7/7/10
f 6/6/11 19/19/1 5/5/5
f 8/8/12 20/20/1 17/17/1
f 17/17/1 21/21/1 18/18/1
f 21/21/1 19/19/1 18/18/1
f 10/10/13 20/20/1 9/9/14
f 23/23/15 21/21/1 20/20/1
f 21/21/1 25/25/1 22/22/6
f 2/2/16 23/23/15 10/10/13
f 23/23/15 12/12/17 24/24/1
f 12/12/17 25/25/1 24/24/1
f 34/34/18 51/51/19 35/35/20
f 30/30/21 55/55/22 46/46/23
f 34/34/18 49/49/24 50/50/25
f 38/38/26 55/55/22 39/39/27
f 33/33/28 48/48/29 49/49/24
f 38/38/26 45/45/30 54/54/31
f 31/31/32 46/46/23 47/47/33
f 37/37/34 44/44/35 28/28/36
f 28/28/36 45/45/30 29/29/37
f 36/36/38 53/53/39 37/37/34
f 32/32/40 57/57/41 48/48/29
f 26/26/42 43/43/43 27/27/44
f 27/27/44 52/52/45 36/36/38
f 40/40/46 57/57/41 41/41/47
f 35/35/20 42/42/48 26/26/42
f 40/40/46 47/47/33 56/56/49
f 3/3/4 34/34/18 5/5/5
f 13/13/50 39/39/27 30/30/21
f 5/5/5 35/35/20 6/6/11
f 4/4/2 40/40/46 14/14/3
f 7/7/10 35/35/20 26/26/42
f 15/15/8 40/40/46 41/41/47
f 1/1/9 36/36/38 8/8/12
f 1/1/9 26/26/42 27/27/44
f 16/16/7 41/41/47 32/32/40
f 8/8/12 37/37/34 9/9/14
f 2/2/16 28/28/36 29/29/37
f 10/10/13 37/37/34 28/28/36
f 4/4/2 30/30/21 31/31/32
f 2/2/16 38/38/26 11/11/51
f 3/3/4 32/32/40 33/33/28
f 11/11/51 39/39/27 12/12/17
f 64/64/52 47/47/33 46/46/23
f 49/49/24 58/58/52 50/50/25
f 48/48/29 61/61/53 58/58/52
f 61/61/53 56/56/49 64/64/52
f 43/43/43 59/59/52 52/52/45
f 51/51/19 59/59/52 42/42/48
f 51/51/19 58/58/52 60/60/52
f 52/52/45 62/62/52 53/53/39
f 60/60/52 62/62/52 59/59/52
f 58/58/52 63/63/52 60/60/52
f 62/62/52 44/44/35 53/53/39
f 63/63/52 65/65/54 62/62/52
f 61/61/53 66/66/52 63/63/52
f 65/65/54 45/45/30 44/44/35
f 65/65/54 55/55/22 54/54/31
f 64/64/52 55/55/22 66/66/52
f 25/25/1 13/13/50 4/4/2
f 19/19/1 16/16/7 3/3/4
f 22/22/6 15/15/8 16/16/7
f 22/22/6 25/25/1 14/14/3
f 1/1/9 8/8/12 17/17/1
f 17/17/1 18/18/1 6/6/11
f 6/6/11 18/18/1 19/19/1
f 8/8/12 9/9/14 20/20/1
f 17/17/1 20/20/1 21/21/1
f 21/21/1 22/22/6 19/19/1
f 10/10/13 23/23/15 20/20/1
f 23/23/15 24/24/1 21/21/1
f 21/21/1 24/24/1 25/25/1
f 2/2/16 11/11/51 23/23/15
f 23/23/15 11/11/51 12/12/17
f 12/12/17 13/13/50 25/25/1
f 34/34/18 50/50/25 51/51/19
f 30/30/21 39/39/27 55/55/22
f 34/34/18 33/33/28 49/49/24
f 38/38/26 54/54/31 55/55/22
f 33/33/28 32/32/40 48/48/29
f 38/38/26 29/29/37 45/45/30
f 31/31/32 30/30/21 46/46/23
f 37/37/34 53/53/39 44/44/35
f 28/28/36 44/44/35 45/45/30
f 36/36/38 52/52/45 53/53/39
f 32/32/40 41/41/47 57/57/41
f 26/26/42 42/42/48 43/43/43
f 27/27/44 43/43/43 52/52/45
f 40/40/46 56/56/49 57/57/41
f 35/35/20 51/51/19 42/42/48
f 40/40/46 31/31/32 47/47/33
f 3/3/4 33/33/28 34/34/18
f 13/13/50 12/12/17 39/39/27
f 5/5/5 34/34/18 35/35/20
f 4/4/2 31/31/32 40/40/46
f 7/7/10 6/6/11 35/35/20
f 15/15/8 14/14/3 40/40/46
f 1/1/9 27/27/44 36/36/38
f 1/1/9 7/7/10 26/26/42
f 16/16/7 15/15/8 41/41/47
f 8/8/12 36/36/38 37/37/34
f 2/2/16 10/10/13 28/28/36
f 10/10/13 9/9/14 37/37/34
f 4/4/2 13/13/50 30/30/21
f 2/2/16 29/29/37 38/38/26
f 3/3/4 16/16/7 32/32/40
f 11/11/51 38/38/26 39/39/27
f 64/64/52 56/56/49 47/47/33
f 49/49/24 48/48/29 58/58/52
f 48/48/29 57/57/41 61/61/53
f 61/61/53 57/57/41 56/56/49
f 43/43/43 42/42/48 59/59/52
f 51/51/19 60/60/52 59/59/52
f 51/51/19 50/50/25 58/58/52
f 52/52/45 59/59/52 62/62/52
f 60/60/52 63/63/52 62/62/52
f 58/58/52 61/61/53 63/63/52
f 62/62/52 65/65/54 44/44/35
f 63/63/52 66/66/52 65/65/54
f 61/61/53 64/64/52 66/66/52
f 65/65/54 54/54/31 45/45/30
f 65/65/54 66/66/52 55/55/22
f 64/64/52 46/46/23 55/55/22
